<?xml version="1.0" standalone="no"?> <!DOCTYPE svg PUBLIC "-//W3C//DTD SVG 20010904//EN" "http://www.w3.org/TR/2001/REC-SVG-20010904/DTD/svg10.dtd"> <svg version="1.0" xmlns="http://www.w3.org/2000/svg" width="336.000000pt" height="118.000000pt" viewBox="0 0 336.000000 118.000000" preserveAspectRatio="xMidYMid meet"> <g transform="translate(0.000000,118.000000) scale(0.100000,-0.100000)" fill="#8ED8F3" stroke="none"> <path d="M1787 1130 c-60 -45 -73 -50 -119 -50 -44 0 -63 -7 -137 -53 l-86 -53 -75 16 -75 16 -82 -32 c-46 -18 -102 -46 -125 -63 -65 -46 -116 -56 -231 -45 l-98 10 -138 -51 c-174 -64 -201 -83 -201 -136 0 -21 3 -39 6 -39 3 0 31 20 62 44 43 32 86 53 170 81 l113 37 112 -10 c62 -5 122 -13 133 -17 17 -5 35 5 88 53 88 80 163 107 249 89 l57 -12 -81 -74 c-44 -40 -78 -76 -75 -78 12 -12 270 135 329 188 55 49 68 57 116 62 36 4 67 16 93 34 22 15 47 34 58 41 17 12 20 9 40 -35 20 -46 22 -77 5 -115 -6 -14 -2 -18 16 -18 51 0 68 -11 75 -47 6 -32 13 -37 92 -74 46 -21 86 -39 88 -39 2 0 4 21 4 47 0 45 -3 51 -66 114 -46 46 -68 77 -74 102 -4 21 -6 37 -4 37 1 0 56 -24 120 -54 117 -53 117 -53 166 -41 l48 13 71 -57 c78 -64 77 -64 319 -106 80 -14 157 -27 171 -30 23 -5 27 -2 31 20 7 34 7 34 -232 86 -190 41 -197 43 -278 95 -81 53 -83 54 -141 48 -57 -6 -61 -5 -176 56 -106 56 -197 89 -250 89 -11 1 -50 -22 -88 -49z"/> <path d="M510 61 c0 -34 4 -61 10 -61 6 0 10 9 10 19 0 14 8 21 26 23 63 7 55 71 -10 76 l-36 3 0 -60z m58 22 c2 -8 -5 -13 -17 -13 -12 0 -21 6 -21 16 0 18 31 15 38 -3z"/> <path d="M740 61 c0 -48 3 -61 15 -61 9 0 15 9 16 23 l0 22 16 -23 c24 -35 56 -28 33 8 -5 9 -5 19 1 27 6 6 9 22 7 35 -2 19 -10 23 -45 26 l-43 3 0 -60z m58 21 c2 -7 -3 -12 -12 -12 -9 0 -16 7 -16 16 0 17 22 14 28 -4z"/> <path d="M980 60 l0 -60 40 0 c29 0 40 4 40 15 0 9 -9 15 -25 15 -14 0 -25 5 -25 10 0 6 11 10 25 10 16 0 25 6 25 15 0 9 -9 15 -25 15 -14 0 -25 5 -25 10 0 6 11 10 25 10 14 0 25 5 25 10 0 6 -18 10 -40 10 l-40 0 0 -60z"/> <path d="M1210 60 c0 -47 3 -60 15 -60 10 0 15 10 16 28 l1 27 10 -27 c12 -34 26 -36 38 -5 l9 22 0 -22 c1 -14 7 -23 16 -23 12 0 15 13 15 60 0 47 -3 60 -15 60 -9 0 -22 -15 -30 -32 l-14 -33 -11 33 c-8 21 -19 32 -31 32 -17 0 -19 -8 -19 -60z"/> <path d="M1480 60 c0 -47 3 -60 15 -60 12 0 15 13 15 60 0 47 -3 60 -15 60 -12 0 -15 -13 -15 -60z"/> <path d="M1660 79 c0 -59 14 -79 56 -79 28 0 36 5 44 26 16 40 13 94 -5 94 -11 0 -15 -11 -15 -39 0 -39 -20 -68 -40 -56 -5 3 -10 26 -10 51 0 32 -4 44 -15 44 -11 0 -15 -11 -15 -41z"/> <path d="M1920 60 c0 -61 19 -87 21 -27 l1 32 14 -32 c17 -40 29 -42 42 -5 l10 27 1 -27 c1 -18 6 -28 16 -28 12 0 15 13 15 60 0 52 -2 60 -19 60 -12 0 -23 -11 -31 -32 l-11 -33 -14 33 c-8 17 -21 32 -30 32 -12 0 -15 -13 -15 -60z"/> <path d="M2360 60 c0 -47 3 -60 15 -60 12 0 15 13 15 60 0 47 -3 60 -15 60 -12 0 -15 -13 -15 -60z"/> <path d="M2552 108 c-16 -16 -16 -80 0 -96 18 -18 77 -15 85 3 8 22 -4 30 -20 16 -22 -18 -47 -2 -47 29 0 31 25 47 45 30 15 -13 30 3 20 20 -9 14 -68 13 -83 -2z"/> <path d="M2790 60 l0 -60 40 0 c29 0 40 4 40 15 0 9 -9 15 -25 15 -14 0 -25 5 -25 10 0 6 11 10 25 10 16 0 25 6 25 15 0 9 -9 15 -25 15 -14 0 -25 5 -25 10 0 6 11 10 25 10 14 0 25 5 25 10 0 6 -18 10 -40 10 l-40 0 0 -60z"/> </g> <g transform="translate(0.000000,118.000000) scale(0.100000,-0.100000)" fill="#263647" stroke="none"> <path d="M100 507 c0 -1 -22 -61 -50 -132 -27 -71 -50 -133 -50 -137 0 -4 9 -8 21 -8 13 0 23 10 30 30 11 29 13 30 70 30 58 0 60 -1 70 -30 8 -22 17 -30 36 -30 13 0 23 4 21 9 -1 4 -25 67 -53 140 -44 115 -53 131 -72 131 -13 0 -23 -1 -23 -3z m28 -175 c-22 -2 -42 -1 -44 1 -3 2 5 30 18 61 l21 58 22 -59 22 -58 -39 -3z"/> <path d="M310 371 c0 -134 1 -141 20 -141 18 0 20 7 20 56 0 51 2 55 22 52 15 -2 33 -21 53 -55 22 -39 36 -53 53 -53 29 0 28 6 -7 59 l-30 44 30 28 c36 34 38 77 5 116 -21 24 -32 28 -95 31 l-71 4 0 -141z m131 80 c21 -16 22 -22 11 -45 -10 -22 -18 -26 -57 -26 l-45 0 0 45 c0 44 0 45 34 45 19 0 44 -8 57 -19z"/> <path d="M644 501 c-32 -14 -73 -68 -80 -107 -9 -50 20 -121 60 -145 48 -29 109 -25 148 10 28 25 30 31 16 36 -10 4 -27 0 -40 -9 -34 -24 -85 -20 -113 9 -43 42 -30 140 22 164 35 16 57 14 85 -9 21 -16 28 -17 42 -7 16 12 15 14 -8 36 -27 26 -96 37 -132 22z"/> <path d="M850 490 c0 -17 7 -20 40 -20 l40 0 0 -120 c0 -113 1 -120 20 -120 19 0 20 7 20 120 l0 120 40 0 c33 0 40 3 40 20 0 19 -7 20 -100 20 -93 0 -100 -1 -100 -20z"/> <path d="M1120 370 c0 -133 1 -140 20 -140 19 0 20 7 20 140 0 133 -1 140 -20 140 -19 0 -20 -7 -20 -140z"/> <path d="M1320 503 c-55 -21 -97 -103 -84 -160 19 -77 61 -113 133 -113 31 0 49 7 73 29 28 25 30 31 16 36 -10 4 -27 0 -40 -9 -94 -66 -191 72 -109 155 34 34 68 37 103 9 21 -16 28 -17 42 -7 40 30 -78 83 -134 60z"/> <path d="M1734 492 c-76 -48 -84 -175 -15 -236 32 -29 117 -33 159 -7 30 19 32 24 32 76 l0 55 -65 0 c-58 0 -65 -2 -65 -20 0 -17 7 -20 45 -20 41 0 45 -2 45 -25 0 -27 -25 -45 -65 -45 -86 0 -124 112 -60 176 28 28 66 31 106 7 23 -14 31 -15 41 -5 10 10 8 17 -9 33 -31 31 -108 36 -149 11z"/> <path d="M1990 370 l0 -140 75 0 c68 0 75 2 75 20 0 18 -7 20 -55 20 l-55 0 0 120 c0 113 -1 120 -20 120 -19 0 -20 -7 -20 -140z"/> <path d="M2300 507 c0 -1 -22 -61 -50 -132 -27 -71 -50 -133 -50 -137 0 -4 9 -8 21 -8 14 0 24 10 32 30 11 29 14 30 70 30 56 0 59 -1 70 -30 8 -22 18 -30 35 -30 19 0 23 4 17 18 -4 9 -27 72 -53 140 -41 107 -49 122 -69 122 -13 0 -23 -1 -23 -3z m28 -175 c-22 -2 -42 -2 -44 0 -2 2 6 30 18 62 l21 58 22 -59 22 -58 -39 -3z"/> <path d="M2553 490 c-47 -28 -66 -72 -61 -138 4 -48 10 -60 41 -89 31 -28 44 -33 84 -33 58 0 118 39 95 61 -10 11 -18 10 -41 -4 -72 -42 -136 -3 -136 85 0 42 4 53 28 74 34 29 76 31 110 4 20 -16 27 -17 35 -7 13 15 6 27 -28 50 -33 23 -88 21 -127 -3z"/> <path d="M2790 370 c0 -133 1 -140 20 -140 19 0 20 7 20 140 0 133 -1 140 -20 140 -19 0 -20 -7 -20 -140z"/> <path d="M2920 370 l0 -140 85 0 c78 0 85 2 85 20 0 18 -7 20 -65 20 l-65 0 0 40 0 40 65 0 c58 0 65 2 65 20 0 18 -7 20 -65 20 l-65 0 0 40 0 40 65 0 c58 0 65 2 65 20 0 18 -7 20 -85 20 l-85 0 0 -140z"/> <path d="M3170 371 c0 -134 1 -141 20 -141 18 0 20 7 20 55 0 48 2 55 20 55 13 0 31 -19 55 -55 23 -37 41 -55 55 -55 26 0 25 7 -9 59 l-30 44 30 28 c36 34 38 77 5 116 -21 24 -32 28 -95 31 l-71 4 0 -141z m131 80 c21 -16 22 -22 11 -45 -10 -22 -18 -26 -57 -26 l-45 0 0 45 c0 44 0 45 34 45 19 0 44 -8 57 -19z"/> </g></svg>
